<svg width="233" height="48" viewBox="0 0 233 48" fill="none" xmlns="http://www.w3.org/2000/svg"><path d="M218.534 0q5.712 0 9.696 4.032 4.032 3.984 4.032 9.696v20.544q0 5.712-4.032 9.744Q224.246 48 218.534 48h-41.136q-5.664 0-9.696-3.984-4.032-4.032-4.032-9.744V13.728q0-5.712 4.032-9.696Q171.734 0 177.398 0zm4.128 12.336q0-1.68-1.2-2.88-1.2-1.248-2.928-1.248h-41.136q-1.68 0-2.928 1.248-1.2 1.2-1.2 2.88v23.328q0 1.68 1.2 2.928 1.248 1.2 2.928 1.2h41.136q1.728 0 2.928-1.2 1.2-1.248 1.2-2.928zM97.307 39.792h41.136q1.68 0 2.88-1.2 1.248-1.248 1.248-2.928V24.432q0-.192.096-.288.144-.144.288-.144h8.784q.192 0 .288.144.144.096.144.288v11.232q0 5.088-3.648 8.736-3.6 3.6-8.736 3.6h-42.48q-5.712 0-9.744-3.984-3.984-4.032-3.984-9.744V13.728q0-5.712 3.984-9.696Q91.595 0 97.307 0h54.432q.192 0 .288.144.144.096.144.288v7.392q0 .144-.144.288-.096.096-.288.096H97.307q-1.728 0-2.928 1.248-1.2 1.2-1.2 2.88v23.328q0 1.68 1.2 2.928 1.2 1.2 2.928 1.2M43.808 3.648Q47.648 0 52.544 0h19.152q.192 0 .288.144.144.096.144.288v47.184q0 .144-.144.288-.096.096-.288.096h-8.784a.5.5 0 0 1-.288-.096.5.5 0 0 1-.096-.288V8.256h-8.016q-1.632 0-2.88 1.2L12.944 47.904a.5.5 0 0 1-.288.096H.416q-.288 0-.384-.24t.096-.432z" fill="#000"/><path fill="#000" d="m227.174 9.771 2.705 7.046-57.937 22.24-2.705-7.046z"/></svg>
